<svg xmlns="http://www.w3.org/2000/svg" version="1.1" xmlns:xlink="http://www.w3.org/1999/xlink" xmlns:svgjs="http://svgjs.dev/svgjs" width="1000" height="1000" viewBox="0 0 1000 1000"><rect width="1000" height="1000" fill="#000000"></rect><g transform="matrix(0.7,0,0,0.7,150.00000546874986,106.25)"><svg viewBox="0 0 320 360" data-background-color="#ffffff" preserveAspectRatio="xMidYMid meet" height="1125" width="1000" xmlns="http://www.w3.org/2000/svg" xmlns:xlink="http://www.w3.org/1999/xlink"><g id="tight-bounds" transform="matrix(1,0,0,1,0.0000025000000505315256,0)"><svg viewBox="0 0 320 360" height="360" width="320"><g><svg></svg></g><g><svg viewBox="0 0 320 360" height="360" width="320"><g><path transform="translate(-19.44751,3.1739) scale(3.53591,3.53591)" d="M67.6 10.7c0.2 0 1.8 0.8 2.7 1.1-0.3 0.1-1-0.2-1.8-0.5 0.2 0 0.6 0.1 1 0.3-0.2-0.2-1.7-0.7-1.9-0.9M52.7 7.6c0.3-0.1 3.8 0.4 5.4 0.5 0.1-0.1-0.2-0.1-0.6-0.2 0.5-0.1 1.5 0.2 2.2 0.3-2.1 0.1-4.4-0.5-6.4-0.3-0.7 0-0.2-0.2-0.6-0.3M49.8 7.6c1.8 0 3.2 0 0.6 0.2-0.3-0.1-0.7-0.1-0.6-0.2M78.1 15.9c0.2 0 1 0.9 1.4 1.2-0.1 0.1-0.9-0.7-1.3-1 0.1 0.1 0 0-0.1-0.2M76.1 14.6c-0.8-0.7-1.1-0.7-1.2-1.1 0.7 0.4 1.2 0.8 1.2 1.1M63.2 8.3c0.1-0.1 0.3 0.1 0.8 0.2-0.6-0.1-0.5 0-0.3 0.2-0.7-0.1-0.9-0.2-0.7-0.4 0.4 0.2 0.5 0.1 0.2 0M34.8 9.5c0-0.1 0.4-0.3 0.7-0.4-0.3 0.2-0.2 0.3 0.3 0.1 0 0.1-0.6 0.3-1 0.5 0.2-0.1 0.4-0.4 0-0.2M65.2 7.3c-0.3 0.1-1.4-0.5-2.5-0.7-0.6-0.2 2.4 0.5 2.5 0.7M6.2 56.7c0.6 2.5 0.2 2.4 0 0M6.3 41.7c0.1-0.4 0.2-1.5 0.3-1.4-0.3 2.4-0.8 3.5-0.9 5.3 0.3-1.6-0.1 0.9-0.2 1.5 0.1 0.8 0.1-0.5 0.3-0.3 0.2 0.3-0.4 4.5-0.2 2.2-0.2 2.1 0 4.4 0.4 5-0.5 3.2 2 10.4 2.5 11.9 0.1 0.1 0-0.5 0.2-0.1 0.2 1.3 1.1 2.2 1.4 3.6 0.3 0.4 1.5 2.6 1.7 3.1 0.4 0.8 0.6 0.7 1 1.5 1.2 2.3 3.1 4.5 4.9 6.6 5.8 6.8 14.7 12.4 24.6 14.4 9.9 2.1 20.3 0.6 28.4-3.3 0.5-0.3 0.4-0.4 1-0.6 2.8-0.9 6.2-3.8 8.1-4.9 0.9-1 3.3-2.7 3.6-3.7 1.7-1.4 3.4-3.7 4.3-5.2 0.5-0.8 0.9-0.8 1.1-1.3-0.1 0 1.6-2.1 2.1-3.3-0.2 0-0.5 0.6-0.5 0 3.6-6.9 5.6-16.2 4.5-22.6 0.2 7.9-1.8 16.7-5.6 22.3-1.7 3.6-5.2 7.5-8.4 10.3-0.5 0.5-1 1.1-1.6 1.5-1.9 1.6-4 2.9-6.2 4.1-5.2 2.9-11 5.4-17.8 5.5 11.7-1 22.2-6.9 28-14.1-4.4 4.3-6.3 6-11.2 8.5-0.4 0.7-3.7 2.1-5.9 2.7 1.3-0.6 4-1.6 4.9-2.4-7.3 3.5-15.4 5.5-23 4.4 2.9 0 7 0.1 10.9-0.6 0.6-0.2 0.9-0.4 1.6-0.5 7.6-1.7 14.9-5.4 20.1-10.6-3 2.7-7.5 5.9-10.4 6.9 2.7-1.5 7.6-4.4 9.2-6.6-3.2 3.2-9.2 6.4-13 7.8-0.6 0.1 0.4-0.4-0.6 0-1.2 0.3-0.7 0.3-1 0.5-4.6 1.3-9.9 2.4-14.3 2-0.8-0.1-1.1-0.3-1.8-0.3-0.8-0.1-1.5-0.1-2.4-0.1-3.5-0.4-7.3-1.8-10.1-3-1.5-0.7-3-1.2-4.5-2.1-1.2-0.7-2.2-1.5-3.2-2.3-3.8-2.8-7-5.6-10-9.6-5.4-7.5-8.2-16.9-7.8-26.2 0.4-9.3 4.1-18.4 10-25.1-0.3 0.3 0.4-0.7 1-1.3 0 0.2-0.1 0.5 0.6-0.2 0.6-0.7-0.2-0.2 0.1-0.6 6.2-6.8 17-12.3 28.1-12.5 0.4-0.3 1.1-0.7 1.9-0.5 0 0.1-0.5 0.1-0.5 0.1 1.1-0.1 2.1-0.1 2.6 0.1 0.1-0.1-0.4-0.2 0-0.2 0.7 0.2 0.9 0 1.3 0.2-0.3 0-0.6 0-0.8 0.1 2.5 0 4.1 0.6 6.6 0.8-1.3-0.3-1.6-0.3-2.6-0.6 1.1 0.2 1.6 0.4 2.1 0.3-0.2 0-0.1-0.3 0.1-0.2 2 0.5 2.2 0.7 4.3 1.4 0.2-0.2-0.9-0.3-1.2-0.6 2 0.7 3.8 1.2 5 2-0.4-0.3-1.6-0.7-2.5-1.1-0.1 0.1 0.3 0.2 0.4 0.4-1-0.5-2.4-1-3.8-1.2 1.2 0.3 2 0.7 2.5 0.9-1.1-0.2-2.5-0.9-4.1-1.2 2.6 0.8 7.5 2.6 10.5 4.2-1.1-0.7-2.4-1.2-3.1-1.6 0.6 0.1 1.3 0.5 1.3 0.3 0.7 0.3 1.6 1 2.1 1.1-0.9-0.6-2.7-1.5-3.3-1.8 7.5 3.4 14.2 9.1 18.5 16.4 0.4 0.7 1 2.3 1.5 2.5-0.1-0.5-0.5-0.8-0.9-1.6 0.2 0 0.2-0.3 0-0.6-0.4-0.5 0 0.4-0.4-0.1-1.8-3.3-4-6.2-7.4-9.4 1.9 1.8 0.5 0.5 0.1-0.1 2.6 2.3 5.6 6.2 6.9 8.2-0.2-0.3-0.3-0.5-0.2-0.5 2.4 4.1 3.9 7.8 5.4 13.1 0.1 0.1 0-0.4 0.2-0.1 1 4.2 1.3 7.7 1.2 10.9 0.8-5.4-1-13.8-4.2-20.4-0.4-0.8-0.4-0.2-0.8-1.1 0-0.3-0.3-0.9-0.5-1.3-4-6.6-8.9-11.3-14.7-15 0.4 0.2 1.2 0.8 1.2 0.7-10.8-7.1-23.3-8.1-33.6-5.9-0.7 0.3-1 0.6-1.8 1 1.5-0.5 2.4-0.6 3.8-0.9 0.3-0.3-1.3 0.1-0.6-0.2 0.1 0.1 1.4-0.2 1.7-0.1 0 0.1-0.4 0.2-0.5 0.3 3.3-0.7 6.7-0.8 9.6-0.6-1.7 0.1-4.8-0.2-5.8 0.3 1-0.1 2.4-0.2 3.3-0.1-1.2 0-3.4 0.1-4.4 0.2-0.1-0.1 1.6-0.3 0.5-0.3-0.5 0.1-1.3 0.1-1.6 0.4-8.6 0.8-17 5.3-22.9 10.6-1.2 1-2.6 2.1-3.5 3.2-2.2 2.5-3.6 5-5.2 7.2 1-2.1 3.2-5.3 5.8-8 2.6-2.7 5.4-5 6.9-6.2 0 0.4 2.4-1.5 3.3-2.1-0.6 0.5 0.4-0.2 0.6-0.1 3.2-1.9 5.8-2.6 8.7-3.7-0.7 0.2-1.3 0.4-1.4 0.3 0.7-0.2 1.1-0.4 1-0.5-2.8 0.8-7.2 2.7-10.7 4.8 6.3-4.3 14.3-6.9 22.2-7 7.9-0.2 15.6 1.8 21.7 5 4.1 1.8 8 5.1 11.1 8.3 0.9 0.8 0.2-0.2 1.5 1.2-0.4-0.2-0.7-0.4-0.2 0.2 0.8 0.9-0.2-0.7 1.1 0.9-0.1 0-0.5-0.5-0.5-0.3 3.5 3.1 6.2 8.7 7.8 12.4-0.4-1.5-1.4-3.6-2.2-5.1 2.4 4.4 3.2 7 4.2 10.9 0.4 0.3-0.2-1.4 0.2-0.6 0.1 0.6 0.2 2.5 0.6 2.8-0.3-1.9-0.8-4.2-1.2-4.6 0.3 0.2-0.5-2.3-1-2.9-0.2-1.6-1.6-4.4-2.8-6.5-4.3-8.4-12-15.3-20.6-19.1 0-0.2-0.5-0.4-0.7-0.6-8.5-3.6-18.7-4.6-28.5-2.3-9.9 2.4-19.2 8.1-25.8 16.3 0.3-1 2.8-2.9 2.9-3.7-2.9 3.1-6 7.2-8.1 11.6-2.2 4.4-3.4 8.9-3.9 12.2" fill="#ffffff" fill-rule="nonzero" stroke="none" stroke-width="1" stroke-linecap="butt" stroke-linejoin="miter" stroke-miterlimit="10" stroke-dasharray="" stroke-dashoffset="0" font-family="none" font-weight="none" font-size="none" text-anchor="none" style="mix-blend-mode: normal" data-fill-palette-color="tertiary"></path></g><g transform="matrix(1,0,0,1,53.66934585203667,90)"><svg viewBox="0 0 212.66130829592666 180" height="180" width="212.66130829592666"><g><svg viewBox="0 0 212.66130829592666 180" height="180" width="212.66130829592666"><g><svg viewBox="0 0 224 189.59725360051448" height="180" width="212.66130829592666"><g transform="matrix(1,0,0,1,0,115.13455033084433)"><svg viewBox="0 0 224 74.46270326967014" height="74.46270326967014" width="224"><g id="textblocktransform"><svg viewBox="0 0 224 74.46270326967014" height="74.46270326967014" width="224" id="textblock"><g><svg viewBox="0 0 224 51.79304296989185" height="51.79304296989185" width="224"><g transform="matrix(1,0,0,1,0,0)"><svg width="224" viewBox="3.9 -38.8 171.04 39.55" height="51.79304296989185" data-palette-color="#010c80"><path d="M17.5 0.75L17.5 0.75Q13.95 0.75 11.4-0.28 8.85-1.3 7.18-3.15 5.5-5 4.7-7.5 3.9-10 3.9-13L3.9-13 3.9-34.65 10.25-34.65 10.25-13.6Q10.25-11.25 10.78-9.58 11.3-7.9 12.28-6.85 13.25-5.8 14.58-5.3 15.9-4.8 17.55-4.8L17.55-4.8Q19.2-4.8 20.55-5.3 21.9-5.8 22.88-6.85 23.85-7.9 24.38-9.58 24.9-11.25 24.9-13.6L24.9-13.6 24.9-34.65 31.25-34.65 31.25-13Q31.25-10 30.43-7.5 29.6-5 27.93-3.15 26.25-1.3 23.65-0.28 21.05 0.75 17.5 0.75ZM39 0L39-25.3Q40.75-25.8 43.55-26.25 46.35-26.7 49.75-26.7L49.75-26.7Q52.95-26.7 55.1-25.83 57.25-24.95 58.52-23.38 59.8-21.8 60.32-19.58 60.85-17.35 60.85-14.7L60.85-14.7 60.85 0 54.8 0 54.8-13.75Q54.8-15.85 54.52-17.32 54.25-18.8 53.62-19.73 53-20.65 51.92-21.08 50.85-21.5 49.3-21.5L49.3-21.5Q48.15-21.5 46.9-21.35 45.65-21.2 45.05-21.1L45.05-21.1 45.05 0 39 0ZM74.35-26.15L74.35 0 68.3 0 68.3-26.15 74.35-26.15ZM75-33.8L75-33.8Q75-32.1 73.9-31.1 72.8-30.1 71.3-30.1L71.3-30.1Q69.75-30.1 68.65-31.1 67.55-32.1 67.55-33.8L67.55-33.8Q67.55-35.55 68.65-36.55 69.75-37.55 71.3-37.55L71.3-37.55Q72.8-37.55 73.9-36.55 75-35.55 75-33.8ZM88.64-5.45L104.24-5.45 104.24 0 82.34 0 82.34-34.65 88.64-34.65 88.64-5.45ZM114.84-26.15L114.84 0 108.79 0 108.79-26.15 114.84-26.15ZM115.49-33.8L115.49-33.8Q115.49-32.1 114.39-31.1 113.29-30.1 111.79-30.1L111.79-30.1Q110.24-30.1 109.14-31.1 108.04-32.1 108.04-33.8L108.04-33.8Q108.04-35.55 109.14-36.55 110.24-37.55 111.79-37.55L111.79-37.55Q113.29-37.55 114.39-36.55 115.49-35.55 115.49-33.8ZM122.54 0L122.54-25.3Q124.29-25.8 127.09-26.25 129.89-26.7 133.29-26.7L133.29-26.7Q136.49-26.7 138.64-25.83 140.79-24.95 142.06-23.38 143.34-21.8 143.86-19.58 144.39-17.35 144.39-14.7L144.39-14.7 144.39 0 138.34 0 138.34-13.75Q138.34-15.85 138.06-17.32 137.79-18.8 137.16-19.73 136.54-20.65 135.46-21.08 134.39-21.5 132.84-21.5L132.84-21.5Q131.69-21.5 130.44-21.35 129.19-21.2 128.59-21.1L128.59-21.1 128.59 0 122.54 0ZM157.84-38.8L157.84-15.95Q158.99-17.15 160.28-18.53 161.59-19.9 162.84-21.28 164.09-22.65 165.21-23.93 166.34-25.2 167.13-26.15L167.13-26.15 174.28-26.15Q171.78-23.35 169.01-20.35 166.24-17.35 163.44-14.5L163.44-14.5Q164.94-13.25 166.59-11.48 168.24-9.7 169.78-7.7 171.34-5.7 172.69-3.7 174.03-1.7 174.94 0L174.94 0 167.94 0Q167.03-1.55 165.86-3.25 164.69-4.95 163.34-6.55 161.99-8.15 160.59-9.58 159.19-11 157.84-12L157.84-12 157.84 0 151.78 0 151.78-37.8 157.84-38.8Z" opacity="1" transform="matrix(1,0,0,1,0,0)" fill="#ffffff" class="undefined-text-0" data-fill-palette-color="primary" id="text-0"></path></svg></g></svg></g><g transform="matrix(1,0,0,1,0,64.02013738205204)"><svg viewBox="0 0 224 10.4425658876181" height="10.4425658876181" width="224"><g transform="matrix(1,0,0,1,0,0)"><svg width="224" viewBox="1.6 -36.9 804.4 37.5" height="10.4425658876181" data-palette-color="#2c386a"><path d="M14-36.9L14-36.9Q16.5-36.9 18.88-36.2 21.25-35.5 23.4-34.2L23.4-34.2 21.1-30.85Q19.55-32 17.73-32.68 15.9-33.35 13.95-33.35L13.95-33.35Q11.3-33.35 9.45-32.02 7.6-30.7 7.6-27.8L7.6-27.8Q7.6-26.2 8.47-25.08 9.35-23.95 10.8-23.1 12.25-22.25 13.95-21.45L13.95-21.45Q15.7-20.65 17.53-19.7 19.35-18.75 20.88-17.48 22.4-16.2 23.33-14.38 24.25-12.55 24.25-9.9L24.25-9.9Q24.25-6.3 22.5-3.98 20.75-1.65 17.9-0.53 15.05 0.6 11.75 0.6L11.75 0.6Q9.05 0.6 6.53-0.13 4-0.85 1.6-2.1L1.6-2.1 3.4-6.2Q5.05-4.8 7.4-3.9 9.75-3 11.9-3L11.9-3Q13.55-3 15.25-3.63 16.95-4.25 18.1-5.65 19.25-7.05 19.25-9.25L19.25-9.25Q19.25-11.45 18.2-12.88 17.15-14.3 15.45-15.28 13.75-16.25 11.85-17.15L11.85-17.15Q10.2-17.95 8.55-18.8 6.9-19.65 5.55-20.8 4.2-21.95 3.4-23.55 2.6-25.15 2.6-27.4L2.6-27.4Q2.6-30.55 4.28-32.65 5.95-34.75 8.58-35.83 11.2-36.9 14-36.9ZM30.1-33.1L29.4-36.4 51.25-36.4 51.25-32.95 34.75-32.95 34.75-20.4 47.55-20.4 47.55-17 34.75-17 34.75-3.45 51.25-3.45 51.25 0 30.1 0 30.1-33.1ZM66.8-36.4L71.35-36.4 83.95 0 78.8 0 74.6-12.5 62.6-12.5 58.35 0 54.15 0 66.8-36.4ZM73.45-15.9L68.65-30.3 63.75-15.9 73.45-15.9ZM88.5-36.4L95.25-36.4 104.1-12.75Q104.55-11.5 104.98-10.3 105.4-9.1 105.85-7.55L105.85-7.55Q106.25-9.05 106.65-10.23 107.05-11.4 107.5-12.6L107.5-12.6 116.3-36.4 122.35-36.4 122.35 0 117.75 0 117.75-26.35Q117.75-27.25 117.8-28.1 117.85-28.95 117.9-30L117.9-30Q117.6-29.2 117.25-28.35 116.9-27.5 116.6-26.65L116.6-26.65 106.8 0.05 104 0.05 94.1-26.9Q93.85-27.65 93.5-28.48 93.15-29.3 92.9-30L92.9-30Q93-29.05 93.03-28.25 93.05-27.45 93.05-26.6L93.05-26.6 93.05 0 89.25 0 89.25-33.1 88.5-36.4ZM131-33.1L130.3-36.4 135.65-36.4 135.65-3.45 150.95-3.45 150.95 0 131 0 131-33.1ZM156.7-33.1L156-36.4 177.85-36.4 177.85-32.95 161.35-32.95 161.35-20.4 174.15-20.4 174.15-17 161.35-17 161.35-3.45 177.85-3.45 177.85 0 156.7 0 156.7-33.1ZM193.85-36.9L193.85-36.9Q196.35-36.9 198.73-36.2 201.1-35.5 203.25-34.2L203.25-34.2 200.95-30.85Q199.4-32 197.58-32.68 195.75-33.35 193.8-33.35L193.8-33.35Q191.15-33.35 189.3-32.02 187.45-30.7 187.45-27.8L187.45-27.8Q187.45-26.2 188.33-25.08 189.2-23.95 190.65-23.1 192.1-22.25 193.8-21.45L193.8-21.45Q195.55-20.65 197.38-19.7 199.2-18.75 200.73-17.48 202.25-16.2 203.18-14.38 204.1-12.55 204.1-9.9L204.1-9.9Q204.1-6.3 202.35-3.98 200.6-1.65 197.75-0.53 194.9 0.6 191.6 0.6L191.6 0.6Q188.9 0.6 186.38-0.13 183.85-0.85 181.45-2.1L181.45-2.1 183.25-6.2Q184.9-4.8 187.25-3.9 189.6-3 191.75-3L191.75-3Q193.4-3 195.1-3.63 196.8-4.25 197.95-5.65 199.1-7.05 199.1-9.25L199.1-9.25Q199.1-11.45 198.05-12.88 197-14.3 195.3-15.28 193.6-16.25 191.7-17.15L191.7-17.15Q190.05-17.95 188.4-18.8 186.75-19.65 185.4-20.8 184.05-21.95 183.25-23.55 182.45-25.15 182.45-27.4L182.45-27.4Q182.45-30.55 184.13-32.65 185.8-34.75 188.43-35.83 191.05-36.9 193.85-36.9ZM219.65-36.9L219.65-36.9Q222.15-36.9 224.53-36.2 226.9-35.5 229.05-34.2L229.05-34.2 226.75-30.85Q225.2-32 223.38-32.68 221.55-33.35 219.6-33.35L219.6-33.35Q216.95-33.35 215.1-32.02 213.25-30.7 213.25-27.8L213.25-27.8Q213.25-26.2 214.13-25.08 215-23.95 216.45-23.1 217.9-22.25 219.6-21.45L219.6-21.45Q221.35-20.65 223.18-19.7 225-18.75 226.53-17.48 228.05-16.2 228.98-14.38 229.9-12.55 229.9-9.9L229.9-9.9Q229.9-6.3 228.15-3.98 226.4-1.65 223.55-0.53 220.7 0.6 217.4 0.6L217.4 0.6Q214.7 0.6 212.18-0.13 209.65-0.85 207.25-2.1L207.25-2.1 209.05-6.2Q210.7-4.8 213.05-3.9 215.4-3 217.55-3L217.55-3Q219.2-3 220.9-3.63 222.6-4.25 223.75-5.65 224.9-7.05 224.9-9.25L224.9-9.25Q224.9-11.45 223.85-12.88 222.8-14.3 221.1-15.28 219.4-16.25 217.5-17.15L217.5-17.15Q215.85-17.95 214.2-18.8 212.55-19.65 211.2-20.8 209.85-21.95 209.05-23.55 208.25-25.15 208.25-27.4L208.25-27.4Q208.25-30.55 209.93-32.65 211.6-34.75 214.23-35.83 216.85-36.9 219.65-36.9ZM256.95-36.9L256.95-36.9Q259.45-36.9 261.83-36.2 264.2-35.5 266.35-34.2L266.35-34.2 264.05-30.85Q262.5-32 260.68-32.68 258.85-33.35 256.9-33.35L256.9-33.35Q254.25-33.35 252.4-32.02 250.55-30.7 250.55-27.8L250.55-27.8Q250.55-26.2 251.43-25.08 252.3-23.95 253.75-23.1 255.2-22.25 256.9-21.45L256.9-21.45Q258.65-20.65 260.48-19.7 262.3-18.75 263.83-17.48 265.35-16.2 266.28-14.38 267.2-12.55 267.2-9.9L267.2-9.9Q267.2-6.3 265.45-3.98 263.7-1.65 260.85-0.53 258 0.6 254.7 0.6L254.7 0.6Q252 0.6 249.48-0.13 246.95-0.85 244.55-2.1L244.55-2.1 246.35-6.2Q248-4.8 250.35-3.9 252.7-3 254.85-3L254.85-3Q256.5-3 258.2-3.63 259.9-4.25 261.05-5.65 262.2-7.05 262.2-9.25L262.2-9.25Q262.2-11.45 261.15-12.88 260.1-14.3 258.4-15.28 256.7-16.25 254.8-17.15L254.8-17.15Q253.15-17.95 251.5-18.8 249.85-19.65 248.5-20.8 247.15-21.95 246.35-23.55 245.55-25.15 245.55-27.4L245.55-27.4Q245.55-30.55 247.23-32.65 248.9-34.75 251.53-35.83 254.15-36.9 256.95-36.9ZM280.75 0L280.75-32.95 269.95-32.95 269.95-36.4 296.45-36.4 296.45-32.95 285.5-32.95 285.5 0 280.75 0ZM301.2-36.4L306.7-36.4 306.7-12.2Q306.7-7.95 308.8-5.4 310.9-2.85 315.4-2.85L315.4-2.85Q320.05-2.85 322.43-5.65 324.8-8.45 324.8-12.9L324.8-12.9 324.8-36.4 328.65-36.4 328.65-12.9Q328.65-8.7 327.08-5.68 325.5-2.65 322.5-1.03 319.5 0.6 315.2 0.6L315.2 0.6Q308.95 0.6 305.45-2.65 301.95-5.9 301.95-12.2L301.95-12.2 301.95-33.1 301.2-36.4ZM365.65-18.1L365.65-18.1Q365.65-12.85 363.88-8.78 362.1-4.7 358.45-2.35 354.8 0 349.15 0L349.15 0 337.3 0 337.3-33.1Q337.3-33.15 337.13-33.9 336.95-34.65 336.8-35.45 336.65-36.25 336.6-36.4L336.6-36.4 345.95-36.4Q352.05-36.4 356.45-34.58 360.85-32.75 363.25-28.73 365.65-24.7 365.65-18.1ZM360.8-18.2L360.8-18.2Q360.8-22.15 359.83-24.95 358.85-27.75 356.93-29.53 355-31.3 352.18-32.13 349.35-32.95 345.6-32.95L345.6-32.95 341.95-32.95 341.95-3.45 348.55-3.45Q353.1-3.45 355.78-5.45 358.45-7.45 359.63-10.8 360.8-14.15 360.8-18.2ZM372.25-33.1L371.55-36.4 393.4-36.4 393.4-32.95 376.9-32.95 376.9-20.4 389.7-20.4 389.7-17 376.9-17 376.9-3.45 393.4-3.45 393.4 0 372.25 0 372.25-33.1ZM399.05-36.4L405.25-36.4 421.15-11.95Q421.6-11.25 422.1-10.48 422.6-9.7 423.1-9L423.1-9Q423.05-9.85 423-10.73 422.95-11.6 422.95-12.4L422.95-12.4 422.95-36.4 426.75-36.4 426.75 0.25 423.8 0.25 405.25-28.15Q404.85-28.8 404.38-29.53 403.9-30.25 403.4-30.9L403.4-30.9Q403.5-30.1 403.53-29.28 403.55-28.45 403.55-27.65L403.55-27.65 403.55 0 399.75 0 399.75-33.1 399.05-36.4ZM443.1 0L443.1-32.95 432.3-32.95 432.3-36.4 458.8-36.4 458.8-32.95 447.85-32.95 447.85 0 443.1 0ZM475.2-36.4L481.95-36.4 490.8-12.75Q491.25-11.5 491.68-10.3 492.1-9.1 492.55-7.55L492.55-7.55Q492.95-9.05 493.35-10.23 493.75-11.4 494.2-12.6L494.2-12.6 503-36.4 509.05-36.4 509.05 0 504.45 0 504.45-26.35Q504.45-27.25 504.5-28.1 504.55-28.95 504.6-30L504.6-30Q504.3-29.2 503.95-28.35 503.6-27.5 503.3-26.65L503.3-26.65 493.5 0.05 490.7 0.05 480.8-26.9Q480.55-27.65 480.2-28.48 479.85-29.3 479.6-30L479.6-30Q479.7-29.05 479.73-28.25 479.75-27.45 479.75-26.6L479.75-26.6 479.75 0 475.95 0 475.95-33.1 475.2-36.4ZM526.95-36.4L531.5-36.4 544.1 0 538.95 0 534.75-12.5 522.75-12.5 518.5 0 514.3 0 526.95-36.4ZM533.6-15.9L528.8-30.3 523.9-15.9 533.6-15.9ZM548.6-36.4L554.8-36.4 570.7-11.95Q571.15-11.25 571.65-10.48 572.15-9.7 572.65-9L572.65-9Q572.6-9.85 572.55-10.73 572.5-11.6 572.5-12.4L572.5-12.4 572.5-36.4 576.3-36.4 576.3 0.25 573.35 0.25 554.8-28.15Q554.4-28.8 553.92-29.53 553.45-30.25 552.95-30.9L552.95-30.9Q553.05-30.1 553.07-29.28 553.1-28.45 553.1-27.65L553.1-27.65 553.1 0 549.3 0 549.3-33.1 548.6-36.4ZM594.2-36.4L598.75-36.4 611.35 0 606.2 0 602-12.5 590-12.5 585.75 0 581.55 0 594.2-36.4ZM600.85-15.9L596.05-30.3 591.15-15.9 600.85-15.9ZM629.7-36.9L629.7-36.9Q631.65-36.9 633.87-36.48 636.1-36.05 638.17-35.13 640.25-34.2 641.65-32.75L641.65-32.75 639-29.65Q637.45-30.9 636.1-31.7 634.75-32.5 633.27-32.9 631.8-33.3 629.7-33.3L629.7-33.3Q626.4-33.3 624.12-32.05 621.85-30.8 620.42-28.65 619-26.5 618.35-23.8 617.7-21.1 617.7-18.2L617.7-18.2Q617.7-15.45 618.3-12.78 618.9-10.1 620.25-7.9 621.6-5.7 623.8-4.4 626-3.1 629.2-3.1L629.2-3.1Q631.85-3.1 633.77-4.28 635.7-5.45 636.77-7.48 637.85-9.5 637.85-12.05L637.85-12.05 637.85-15.35 628.9-15.35 629.5-18.75 642.55-18.75 642.55-8.3Q642.55-6.25 642.72-4.15 642.9-2.05 643 0L643 0 640.5 0 638.9-3.8Q636.7-1.45 634.17-0.43 631.65 0.6 628.4 0.6L628.4 0.6Q624.45 0.6 621.52-0.88 618.6-2.35 616.65-4.93 614.7-7.5 613.75-10.8 612.8-14.1 612.8-17.75L612.8-17.75Q612.8-23.1 614.67-27.43 616.55-31.75 620.3-34.33 624.05-36.9 629.7-36.9ZM650.1-33.1L649.4-36.4 671.25-36.4 671.25-32.95 654.75-32.95 654.75-20.4 667.55-20.4 667.55-17 654.75-17 654.75-3.45 671.25-3.45 671.25 0 650.1 0 650.1-33.1ZM676.95-36.4L683.7-36.4 692.55-12.75Q693-11.5 693.42-10.3 693.85-9.1 694.3-7.55L694.3-7.55Q694.7-9.05 695.1-10.23 695.5-11.4 695.95-12.6L695.95-12.6 704.75-36.4 710.8-36.4 710.8 0 706.2 0 706.2-26.35Q706.2-27.25 706.25-28.1 706.3-28.95 706.35-30L706.35-30Q706.05-29.2 705.7-28.35 705.35-27.5 705.05-26.65L705.05-26.65 695.25 0.05 692.45 0.05 682.55-26.9Q682.3-27.65 681.95-28.48 681.6-29.3 681.35-30L681.35-30Q681.45-29.05 681.48-28.25 681.5-27.45 681.5-26.6L681.5-26.6 681.5 0 677.7 0 677.7-33.1 676.95-36.4ZM719.45-33.1L718.75-36.4 740.6-36.4 740.6-32.95 724.1-32.95 724.1-20.4 736.9-20.4 736.9-17 724.1-17 724.1-3.45 740.6-3.45 740.6 0 719.45 0 719.45-33.1ZM746.25-36.4L752.45-36.4 768.35-11.95Q768.8-11.25 769.3-10.48 769.8-9.7 770.3-9L770.3-9Q770.25-9.85 770.2-10.73 770.15-11.6 770.15-12.4L770.15-12.4 770.15-36.4 773.95-36.4 773.95 0.25 771 0.25 752.45-28.15Q752.05-28.8 751.58-29.53 751.1-30.25 750.6-30.9L750.6-30.9Q750.7-30.1 750.73-29.28 750.75-28.45 750.75-27.65L750.75-27.65 750.75 0 746.95 0 746.95-33.1 746.25-36.4ZM790.3 0L790.3-32.95 779.5-32.95 779.5-36.4 806-36.4 806-32.95 795.05-32.95 795.05 0 790.3 0Z" opacity="1" transform="matrix(1,0,0,1,0,0)" fill="#ffffff" class="undefined-text-1" data-fill-palette-color="secondary" id="text-1"></path></svg></g></svg></g></svg></g></svg></g><g transform="matrix(1,0,0,1,79.95067550768889,0)"><svg viewBox="0 0 64.09864898462224 102.90745591868415" height="102.90745591868415" width="64.09864898462224"><g><svg xmlns="http://www.w3.org/2000/svg" xmlns:xlink="http://www.w3.org/1999/xlink" version="1.1" x="0" y="0" viewBox="29.811000000000003 8.785850117612409 44.357006561384466 71.2131498823876" enable-background="new 0 0 100 100" xml:space="preserve" height="102.90745591868415" width="64.09864898462224" class="icon-icon-0" data-fill-palette-color="accent" id="icon-0"><g fill="#28307b" data-fill-palette-color="accent"><path d="M49.999 47.08c-11.145 0-20.188 11.061-20.188 24.689 0 4.551 3.011 8.23 6.73 8.23h26.916c3.72 0 6.73-3.68 6.73-8.23C70.188 58.141 61.146 47.08 49.999 47.08z" fill="#ffffff" data-fill-palette-color="accent"></path><path d="M73.699 20.826L55.77 8.96c-0.231-0.155-0.519-0.21-0.793-0.151l-19.859 4.193c-0.4 0.084-0.715 0.396-0.805 0.798l-0.119 0.537c-0.094 0.423 0.082 0.86 0.445 1.1l8.314 5.503-0.339 1.533c-3.004 2.252-4.957 5.83-4.957 9.871 0 6.816 5.529 12.346 12.342 12.346 6.814 0 12.344-5.529 12.344-12.346 0-1.464-0.269-2.863-0.737-4.166 0.185-0.236 0.312-0.488 0.371-0.755l0.414-1.876 5.364-1.133c0.667 0.943 1.103 2.088 1.212 3.547-0.545 0.282-0.922 0.844-0.922 1.5 0 0.551 0.267 1.034 0.674 1.344-0.461 2.352-1.076 6.673 0.15 8.589 0.361 0.563 0.873 0.924 1.479 1.039 0.048 0.009 0.096 0.014 0.144 0.014 0.356 0 0.674-0.253 0.744-0.617 0.078-0.411-0.192-0.809-0.604-0.887-0.133-0.025-0.308-0.09-0.485-0.367-0.433-0.676-0.534-2.01-0.454-3.516 0.374 1.168 0.949 2.219 1.836 2.803 0.352 0.232 0.821 0.133 1.051-0.217s0.133-0.82-0.217-1.051c-1.192-0.785-1.695-3.477-1.803-5.66 0.52-0.289 0.875-0.837 0.875-1.474 0-0.667-0.389-1.238-0.949-1.514-0.1-1.555-0.504-2.82-1.128-3.871l3.861-0.816c0.401-0.084 0.716-0.396 0.805-0.797l0.119-0.537C74.237 21.503 74.061 21.064 73.699 20.826zM53.145 16.721c0.017-0.137 0.156-0.249 0.415-0.304 0.516-0.108 1.313 0.054 1.78 0.362 0.233 0.154 0.34 0.316 0.322 0.454l-0.076 0.376c-0.018 0.137-0.156 0.248-0.414 0.303-0.518 0.109-1.313-0.053-1.78-0.361-0.233-0.155-0.34-0.317-0.323-0.454L53.145 16.721z" fill="#ffffff" data-fill-palette-color="accent"></path></g></svg></g></svg></g><g></g></svg></g></svg></g></svg></g></svg></g><defs></defs></svg><rect width="320" height="360" fill="none" stroke="none" visibility="hidden"></rect></g></svg></g></svg>